<mxfile host="app.diagrams.net" agent="Mozilla/5.0 (Windows NT 10.0; Win64; x64) AppleWebKit/537.36 (KHTML, like Gecko) Chrome/129.0.0.0 Safari/537.36 Edg/129.0.0.0" version="24.7.16">
  <diagram name="Page-1" id="Iy8u5W6iS3z6K68gu87Q">
    <mxGraphModel dx="1422" dy="787" grid="1" gridSize="10" guides="1" tooltips="1" connect="1" arrows="1" fold="1" page="1" pageScale="1" pageWidth="850" pageHeight="1100" math="0" shadow="0">
      <root>
        <mxCell id="0" />
        <mxCell id="1" parent="0" />
        <mxCell id="xqDP8wwKFNP8D2HIjnkf-1" value="MIDDEWARE" style="text;html=1;align=center;verticalAlign=middle;whiteSpace=wrap;rounded=0;" vertex="1" parent="1">
          <mxGeometry x="10" width="60" height="30" as="geometry" />
        </mxCell>
        <mxCell id="xqDP8wwKFNP8D2HIjnkf-2" value="APPLICATION LEVEL" style="rounded=0;whiteSpace=wrap;html=1;" vertex="1" parent="1">
          <mxGeometry x="70" y="80" width="120" height="60" as="geometry" />
        </mxCell>
        <mxCell id="xqDP8wwKFNP8D2HIjnkf-3" value="ROUTER LEVEL" style="rounded=0;whiteSpace=wrap;html=1;" vertex="1" parent="1">
          <mxGeometry x="70" y="200" width="120" height="60" as="geometry" />
        </mxCell>
        <mxCell id="xqDP8wwKFNP8D2HIjnkf-4" value="EXPRESS.JSON" style="rounded=0;whiteSpace=wrap;html=1;" vertex="1" parent="1">
          <mxGeometry x="360" y="80" width="120" height="60" as="geometry" />
        </mxCell>
        <mxCell id="xqDP8wwKFNP8D2HIjnkf-5" value="THIS.VALIDATION" style="rounded=0;whiteSpace=wrap;html=1;" vertex="1" parent="1">
          <mxGeometry x="360" y="200" width="120" height="60" as="geometry" />
        </mxCell>
        <mxCell id="xqDP8wwKFNP8D2HIjnkf-6" value="&lt;font style=&quot;font-size: 15px;&quot;&gt;ROUTER (&quot;/&quot;, [applevel,routerlevel],handler)&lt;/font&gt;" style="text;html=1;align=center;verticalAlign=middle;whiteSpace=wrap;rounded=0;strokeWidth=5;" vertex="1" parent="1">
          <mxGeometry x="50" y="290" width="340" height="30" as="geometry" />
        </mxCell>
        <mxCell id="xqDP8wwKFNP8D2HIjnkf-14" style="edgeStyle=orthogonalEdgeStyle;rounded=0;orthogonalLoop=1;jettySize=auto;html=1;exitX=1;exitY=0.5;exitDx=0;exitDy=0;entryX=0;entryY=0.5;entryDx=0;entryDy=0;" edge="1" parent="1" source="xqDP8wwKFNP8D2HIjnkf-9" target="xqDP8wwKFNP8D2HIjnkf-10">
          <mxGeometry relative="1" as="geometry" />
        </mxCell>
        <mxCell id="xqDP8wwKFNP8D2HIjnkf-9" value="akses endpoint" style="rounded=0;whiteSpace=wrap;html=1;" vertex="1" parent="1">
          <mxGeometry x="70" y="350" width="100" height="40" as="geometry" />
        </mxCell>
        <mxCell id="xqDP8wwKFNP8D2HIjnkf-15" style="edgeStyle=orthogonalEdgeStyle;rounded=0;orthogonalLoop=1;jettySize=auto;html=1;exitX=1;exitY=0.5;exitDx=0;exitDy=0;entryX=0;entryY=0.5;entryDx=0;entryDy=0;" edge="1" parent="1" source="xqDP8wwKFNP8D2HIjnkf-10" target="xqDP8wwKFNP8D2HIjnkf-11">
          <mxGeometry relative="1" as="geometry" />
        </mxCell>
        <mxCell id="xqDP8wwKFNP8D2HIjnkf-10" value="app middleware" style="rounded=0;whiteSpace=wrap;html=1;" vertex="1" parent="1">
          <mxGeometry x="220" y="350" width="100" height="40" as="geometry" />
        </mxCell>
        <mxCell id="xqDP8wwKFNP8D2HIjnkf-16" style="edgeStyle=orthogonalEdgeStyle;rounded=0;orthogonalLoop=1;jettySize=auto;html=1;exitX=1;exitY=0.5;exitDx=0;exitDy=0;entryX=0;entryY=0.5;entryDx=0;entryDy=0;" edge="1" parent="1" source="xqDP8wwKFNP8D2HIjnkf-11" target="xqDP8wwKFNP8D2HIjnkf-12">
          <mxGeometry relative="1" as="geometry" />
        </mxCell>
        <mxCell id="xqDP8wwKFNP8D2HIjnkf-11" value="router middleware" style="rounded=0;whiteSpace=wrap;html=1;" vertex="1" parent="1">
          <mxGeometry x="375" y="350" width="100" height="40" as="geometry" />
        </mxCell>
        <mxCell id="xqDP8wwKFNP8D2HIjnkf-12" value="handler" style="rounded=0;whiteSpace=wrap;html=1;" vertex="1" parent="1">
          <mxGeometry x="540" y="350" width="100" height="40" as="geometry" />
        </mxCell>
      </root>
    </mxGraphModel>
  </diagram>
</mxfile>
